
        <svg xmlns="http://www.w3.org/2000/svg" xmlns:xlink="http://www.w3.org/1999/xlink" version="1.1" width="3181.8181818181824" height="1012.9879492218574" viewBox="0 0 3181.8181818181824 1012.9879492218574">
			
			<g transform="scale(9.090909090909092) translate(10, 10)">
				<defs id="SvgjsDefs1914"/><g id="SvgjsG1915" featureKey="symbolFeature-0" transform="matrix(0.7142866040121322,0,0,0.7142866040121322,-10.71407971481599,0.0003484321574708992)" fill="#fff"><g xmlns="http://www.w3.org/2000/svg"><path d="M26.7255878,66.3516006c-2.3848,51.9608994,16.4960995,61.4521027,16.4960995,61.4521027   c0.3320007,0.1347961,0.6366997,0.1957932,0.9160004,0.1957932c2.7871017,0,3.0028992-6.1220932,3.0028992-6.1239929   c0.1612015-6.0230026,0.5342026-11.9067001,1.6231003-17.8472061c1.1240005-6.1259995,4.044899-27.1137009,12.717701-29.2397003   c1.7686119-0.4330978,3.2031975-0.4242935,4.9599953-0.0175934c8.7324066,2.0209961,11.6669998,23.1138,12.7949066,29.2572937   c1.0888977,5.940506,1.4609985,11.8242035,1.6220932,17.8472061c0,0.0018997,0.2168045,6.1239929,3.0029068,6.1239929   c0.2792969,0,0.5830002-0.060997,0.9160004-0.1957932c0,0,18.8808975-9.4912033,16.4960938-61.4521027   c-0.2041016-4.4229012,0.0029984-8.3876991,2.4570999-12.2159004c7.7470016-12.0853996,13.4842987-29.9878006,5.2295151-43.3969002   c-2.4424133-3.9678001-6.6729126-7.1997399-10.8575134-9.1743498c-2.3260956-1.097165-4.9090958-1.5649381-7.5429001-1.5649381   c-4.8320999,0-9.8368988,1.5727581-13.7587967,3.7163081C72.928688,5.8320298,68.92379,6.7421899,64.9150009,6.7421899   c-5.0664139,0-10.1386147-1.45362-14.9599152-3.7646499c-2.2665977-1.0864301-4.9237976-2.3066421-7.4384995-2.645509   c-1.2831993-0.172363-2.7372971-0.278808-4.2383003-0.278808c-2.9305992,0-6.0360985,0.405273-8.3817978,1.511227   C25.7118874,3.5390601,21.4823875,6.7709999,19.0400009,10.7388c-8.2558126,13.4090996-2.5185127,31.3115005,5.2285881,43.3969002   C26.7226887,57.9639015,26.9296875,61.9286995,26.7255878,66.3516006z M68,27.5151005C68,25.5751991,69.73629,24,71.868187,24H78   v-5.7012005C78,15.9263,79.5741882,14,81.5233841,14h4.9589996C88.4228897,14,90,15.9263,90,18.2987995V24h5.7001877   C98.0741882,24,100,25.5751991,100,27.5189991v3.9673004C100,33.4248009,98.0741882,35,95.7001877,35H90v7.1313019   C90,44.267601,88.4228897,46,86.480484,46h-4.9638977C79.5741882,46,78,44.267601,78,42.1313019V35h-6.131813   C69.73629,35,68,33.4248009,68,31.4862995V27.5151005z M40.590786,14.0874004   c0.5030022-0.2275,1.0928001-0.0005007,1.3203011,0.5023994c0.2266006,0.5035,0.0019989,1.0948-0.5009003,1.3223   c-0.6005974,0.2709999-14.6191864,6.8383999-7.3056984,23.6900005c0.2206993,0.5062981-0.0126991,1.0951996-0.5186005,1.3153992   c-0.1297989,0.0560989-0.2645988,0.0830002-0.3973999,0.0830002c-0.3866997,0-0.7549019-0.2256012-0.9179993-0.6026001   C24.1581879,21.7075005,40.4257889,14.1616001,40.590786,14.0874004z"/></g></g><g id="SvgjsG1916" featureKey="nameFeature-0" transform="matrix(1.7910449800684891,0,0,1.7910449800684891,84.19701552855255,1.1134307762750417)" fill="#fff"><path d="M24.4 33.92 q0.6 0 1 0.42 t0.4 1.02 l0 2.92 q0 0.56 -0.4 0.98 t-1 0.42 l-19.76 0 q-0.56 0 -0.98 -0.42 t-0.42 -0.98 l0 -2.92 q0 -0.6 0.42 -1.02 t0.98 -0.42 l19.76 0 z M4.64 27.72 q-0.56 0 -0.98 -0.42 t-0.42 -0.98 l0 -3 q0 -0.56 0.42 -0.98 t0.98 -0.42 l17.96 0 q0.6 0 1.02 0.42 t0.42 0.98 l0 3 q0 0.56 -0.42 0.98 t-1.02 0.42 l-17.96 0 z M24.4 10 q0.6 0 1 0.42 t0.4 0.98 l0 2.92 q0 0.6 -0.4 1.02 t-1 0.42 l-19.76 0 q-0.56 0 -0.98 -0.42 t-0.42 -1.02 l0 -2.92 q0 -0.56 0.42 -0.98 t0.98 -0.42 l19.76 0 z M55.160000000000004 37.64 q0.24 0.32 0.28 0.72 t-0.12 0.76 t-0.52 0.58 t-0.76 0.22 l-3.88 0 q-0.72 0 -1.16 -0.56 l-7.64 -10.12 l-7.64 10.12 q-0.44 0.56 -1.12 0.56 l-3.92 0 q-0.4 0 -0.74 -0.2 t-0.5 -0.56 q-0.4 -0.84 0.12 -1.52 l20.72 -27.08 q0.44 -0.56 1.12 -0.56 l3.88 0 q0.4 0 0.74 0.22 t0.54 0.58 t0.16 0.76 t-0.32 0.72 l-9.4 12.24 z M34.08 19.76 l-5.76 -7.48 q-0.28 -0.32 -0.32 -0.72 t0.16 -0.76 t0.54 -0.58 t0.74 -0.22 l3.88 0 q0.32 0 0.64 0.14 t0.48 0.42 l5.64 7.48 q0.56 0.68 0.16 1.52 q-0.16 0.36 -0.5 0.56 t-0.78 0.2 l-3.76 0 q-0.32 0 -0.64 -0.14 t-0.48 -0.42 z M73.36 15.719999999999999 q-0.52 -0.08 -0.86 -0.48 t-0.34 -0.92 l0 -2.92 q0 -0.68 0.48 -1.08 t1.12 -0.32 q3.44 0.56 6.12 2.44 q3.48 2.52 4.92 6.68 q0.24 0.68 -0.16 1.28 t-1.16 0.6 l-3.2 0 q-0.44 0 -0.8 -0.22 t-0.52 -0.62 q-0.88 -2.08 -2.68 -3.32 q-1.4 -0.88 -2.92 -1.12 z M83.48 29 q0.76 0 1.16 0.6 t0.16 1.28 q-1.44 4.16 -4.92 6.68 q-2.68 1.88 -6.12 2.44 l-0.2 0 q-0.56 0 -0.92 -0.36 q-0.48 -0.36 -0.48 -1.04 l0 -2.92 q0 -0.52 0.32 -0.92 t0.84 -0.48 q1.68 -0.24 2.96 -1.12 q1.8 -1.24 2.68 -3.32 q0.16 -0.4 0.52 -0.62 t0.8 -0.22 l3.2 0 z M69.16 10.48 q0.52 0.4 0.52 1.08 l0 3.12 q0 0.44 -0.3 0.82 t-0.74 0.54 q-0.56 0.12 -0.88 0.28 q-1.6 0.72 -2.72 1.96 q-2.28 2.56 -2.28 6.7 t2.28 6.74 q1.4 1.6 3.6 2.24 q0.44 0.12 0.74 0.5 t0.3 0.82 l0 3.16 q0 0.68 -0.52 1.08 q-0.36 0.32 -0.92 0.32 l-0.28 0 q-4.28 -0.92 -7.24 -4.16 q-3.8 -4.28 -3.8 -10.68 t3.8 -10.68 q2.96 -3.28 7.24 -4.12 q0.64 -0.16 1.2 0.28 z M110.56 33.92 q0.6 0 1 0.42 t0.4 1.02 l0 2.92 q0 0.56 -0.4 0.98 t-1 0.42 l-19.76 0 q-0.56 0 -0.98 -0.42 t-0.42 -0.98 l0 -2.92 q0 -0.6 0.42 -1.02 t0.98 -0.42 l19.76 0 z M90.8 27.72 q-0.56 0 -0.98 -0.42 t-0.42 -0.98 l0 -3 q0 -0.56 0.42 -0.98 t0.98 -0.42 l17.96 0 q0.6 0 1.02 0.42 t0.42 0.98 l0 3 q0 0.56 -0.42 0.98 t-1.02 0.42 l-17.96 0 z M110.56 10 q0.6 0 1 0.42 t0.4 0.98 l0 2.92 q0 0.6 -0.4 1.02 t-1 0.42 l-19.76 0 q-0.56 0 -0.98 -0.42 t-0.42 -1.02 l0 -2.92 q0 -0.56 0.42 -0.98 t0.98 -0.42 l19.76 0 z M121.24000000000001 10 q0.56 0 0.98 0.42 t0.42 0.98 l0 26.8 q0 0.56 -0.42 0.98 t-0.98 0.42 l-3.04 0 q-0.56 0 -0.98 -0.42 t-0.42 -0.98 l0 -26.8 q0 -0.56 0.42 -0.98 t0.98 -0.42 l3.04 0 z M135.84 33.88 q0.6 0 1 0.42 t0.4 0.98 l0 2.92 q0 0.56 -0.4 0.98 t-1 0.42 l-9.32 0 q-0.6 0 -1 -0.42 t-0.4 -0.98 l0 -2.92 q0 -0.56 0.4 -0.98 t1 -0.42 l9.32 0 z"/></g>
			</g>
		</svg>
	